<svg version="1.2" xmlns="http://www.w3.org/2000/svg" viewBox="0 0 800 800" width="800" height="800">
	<defs>
		<clipPath clipPathUnits="userSpaceOnUse" id="cp1">
			<path d="m235.09 2.42c-42.58 1.94-71.68 8.69-97.09 18.58-26.32 10.21-48.6 23.91-70.86 46.14-22.26 22.23-35.93 44.54-46.14 70.86-9.89 25.42-16.64 54.51-18.58 97.09-1.97 42.65-2.42 56.28-2.42 164.91 0 108.63 0.45 122.26 2.42 164.91 1.94 42.59 8.69 71.67 18.58 97.09 10.21 26.3 23.88 48.64 46.14 70.86 22.26 22.22 44.54 35.9 70.86 46.14 25.46 9.89 54.51 16.64 97.09 18.58 42.67 1.94 56.28 2.42 164.91 2.42 108.63 0 122.26-0.45 164.91-2.42 42.59-1.94 71.67-8.69 97.09-18.58 26.3-10.24 48.6-23.91 70.86-46.14 22.26-22.23 35.9-44.56 46.14-70.86 9.89-25.42 16.67-54.51 18.58-97.09 1.94-42.68 2.39-56.28 2.39-164.91 0-108.63-0.45-122.26-2.39-164.91-1.94-42.59-8.69-71.68-18.58-97.09-10.24-26.3-23.91-48.6-46.14-70.86-22.23-22.26-44.56-35.93-70.82-46.14-25.46-9.89-54.55-16.67-97.1-18.58-42.65-1.94-56.28-2.42-164.91-2.42-108.63 0-122.27 0.45-164.94 2.42zm3.31 723.17c-39-1.78-60.2-8.27-74.28-13.76-18.68-7.27-32-15.93-46.01-29.92-14.01-13.99-22.68-27.3-29.92-45.98-5.49-14.08-11.99-35.28-13.76-74.28-1.94-42.16-2.33-54.83-2.33-161.65 0-106.82 0.42-119.45 2.33-161.64 1.77-39 8.32-60.16 13.76-74.29 7.27-18.67 15.93-32 29.92-46.01 13.99-14.01 27.3-22.68 46.01-29.92 14.08-5.49 35.28-11.98 74.28-13.76 42.16-1.94 54.83-2.32 161.6-2.32 106.77 0 119.45 0.42 161.65 2.32 39 1.78 60.16 8.32 74.28 13.76 18.67 7.24 32 15.93 46.01 29.92 14.01 13.99 22.65 27.34 29.92 46.01 5.49 14.08 11.99 35.29 13.76 74.29 1.94 42.19 2.33 54.82 2.33 161.64 0 106.82-0.39 119.45-2.33 161.65-1.78 39-8.3 60.2-13.76 74.28-7.27 18.68-15.93 32-29.92 45.98-13.99 13.98-27.34 22.65-46.01 29.92-14.08 5.49-35.28 11.99-74.28 13.76-42.17 1.94-54.83 2.33-161.65 2.33-106.82 0-119.45-0.39-161.6-2.33zm327.13-539.13c-0.01 19.41 11.68 36.92 29.61 44.36 17.93 7.44 38.58 3.34 52.31-10.39 13.74-13.72 17.85-34.36 10.43-52.3-7.42-17.94-24.92-29.64-44.33-29.65h-0.02c-6.3 0-12.54 1.25-18.36 3.66-5.83 2.41-11.12 5.94-15.57 10.4-4.46 4.45-7.99 9.74-10.41 15.56-2.41 5.82-3.66 12.06-3.66 18.36zm-370.93 213.54c0 113.44 91.96 205.4 205.4 205.4 113.44 0 205.4-91.96 205.4-205.4 0-113.44-91.96-205.4-205.4-205.4-113.44 0-205.4 91.96-205.4 205.4zm72.09 0c0-73.64 59.67-133.34 133.31-133.34 73.64 0 133.34 59.7 133.34 133.34 0 73.64-59.7 133.34-133.34 133.34-73.64 0-133.31-59.7-133.31-133.34z"/>
		</clipPath>
		<radialGradient id="g1" cx="0" cy="0" r="1" gradientUnits="userSpaceOnUse" gradientTransform="matrix(1044.333,0,0,1044.333,106.285,803.779)">
			<stop offset=".09" stop-color="#fa8f21"/>
			<stop offset=".78" stop-color="#d82d7e"/>
		</radialGradient>
	</defs>
	<style>
		.s0 { fill: url(#g1) } 
	</style>
	<g clip-path="url(#cp1)">
		<path class="s0" d="m235.09 2.42c-42.58 1.94-71.68 8.69-97.09 18.58-26.32 10.21-48.6 23.91-70.86 46.14-22.26 22.23-35.93 44.54-46.14 70.86-9.89 25.42-16.64 54.51-18.58 97.09-1.97 42.65-2.42 56.28-2.42 164.91 0 108.63 0.45 122.26 2.42 164.91 1.94 42.59 8.69 71.67 18.58 97.09 10.21 26.3 23.88 48.64 46.14 70.86 22.26 22.22 44.54 35.9 70.86 46.14 25.46 9.89 54.51 16.64 97.09 18.58 42.67 1.94 56.28 2.42 164.91 2.42 108.63 0 122.26-0.45 164.91-2.42 42.59-1.94 71.67-8.69 97.09-18.58 26.3-10.24 48.6-23.91 70.86-46.14 22.26-22.23 35.9-44.56 46.14-70.86 9.89-25.42 16.67-54.51 18.58-97.09 1.94-42.68 2.39-56.28 2.39-164.91 0-108.63-0.45-122.26-2.39-164.91-1.94-42.59-8.69-71.68-18.58-97.09-10.24-26.3-23.91-48.6-46.14-70.86-22.23-22.26-44.56-35.93-70.82-46.14-25.46-9.89-54.55-16.67-97.1-18.58-42.65-1.94-56.28-2.42-164.91-2.42-108.63 0-122.27 0.45-164.94 2.42zm3.31 723.17c-39-1.78-60.2-8.27-74.28-13.76-18.68-7.27-32-15.93-46.01-29.92-14.01-13.99-22.68-27.3-29.92-45.98-5.49-14.08-11.99-35.28-13.76-74.28-1.94-42.16-2.33-54.83-2.33-161.65 0-106.82 0.42-119.45 2.33-161.64 1.77-39 8.32-60.16 13.76-74.29 7.27-18.67 15.93-32 29.92-46.01 13.99-14.01 27.3-22.68 46.01-29.92 14.08-5.49 35.28-11.98 74.28-13.76 42.16-1.94 54.83-2.32 161.6-2.32 106.77 0 119.45 0.42 161.65 2.32 39 1.78 60.16 8.32 74.28 13.76 18.67 7.24 32 15.93 46.01 29.92 14.01 13.99 22.65 27.34 29.92 46.01 5.49 14.08 11.99 35.29 13.76 74.29 1.94 42.19 2.33 54.82 2.33 161.64 0 106.82-0.39 119.45-2.33 161.65-1.78 39-8.3 60.2-13.76 74.28-7.27 18.68-15.93 32-29.92 45.98-13.99 13.98-27.34 22.65-46.01 29.92-14.08 5.49-35.28 11.99-74.28 13.76-42.17 1.94-54.83 2.33-161.65 2.33-106.82 0-119.45-0.39-161.6-2.33zm327.13-539.13c-0.01 19.41 11.68 36.92 29.61 44.36 17.93 7.44 38.58 3.34 52.31-10.39 13.74-13.72 17.85-34.36 10.43-52.3-7.42-17.94-24.92-29.64-44.33-29.65h-0.02c-6.3 0-12.54 1.25-18.36 3.66-5.83 2.41-11.12 5.94-15.57 10.4-4.46 4.45-7.99 9.74-10.41 15.56-2.41 5.82-3.66 12.06-3.66 18.36zm-370.93 213.54c0 113.44 91.96 205.4 205.4 205.4 113.44 0 205.4-91.96 205.4-205.4 0-113.44-91.96-205.4-205.4-205.4-113.44 0-205.4 91.96-205.4 205.4zm72.09 0c0-73.64 59.67-133.34 133.31-133.34 73.64 0 133.34 59.7 133.34 133.34 0 73.64-59.7 133.34-133.34 133.34-73.64 0-133.31-59.7-133.31-133.34z"/>
		<rect width="800" height="800" id="Color Fill 1" style="fill: #ffffff"/>
	</g>
</svg>