<svg version="1.2" xmlns="http://www.w3.org/2000/svg" viewBox="0 0 1076 1076" width="1076" height="1076">
	<defs>
		<clipPath clipPathUnits="userSpaceOnUse" id="cp1">
			<path d="m990.75 6.39h-905.95c-10.17-0.06-20.25 1.87-29.69 5.69-9.43 3.81-18.02 9.44-25.29 16.55-7.27 7.12-13.08 15.59-17.1 24.93-4.02 9.35-6.17 19.39-6.33 29.56v909.76c0.16 10.17 2.31 20.21 6.33 29.56 4.02 9.34 9.83 17.81 17.1 24.93 7.27 7.11 15.86 12.74 25.29 16.55 9.44 3.81 19.52 5.75 29.69 5.69h906.04c10.2 0.08 20.31-1.83 29.77-5.64 9.46-3.8 18.09-9.41 25.39-16.53 7.31-7.11 13.15-15.59 17.2-24.95 4.05-9.36 6.22-19.42 6.41-29.61v-909.85c-0.19-10.18-2.37-20.24-6.42-29.58-4.05-9.35-9.89-17.82-17.2-24.92-7.3-7.1-15.93-12.7-25.39-16.48-9.46-3.78-19.57-5.68-29.85-5.66zm-747.79 329.16c-11.99-0.06-23.84-2.46-34.91-7.07-11.06-4.61-21.11-11.34-29.59-19.81-8.48-8.47-15.22-18.52-19.84-29.58-4.62-11.05-7.03-22.91-7.1-34.89 0-50.15 41.29-91.44 91.44-91.44 50.15 0 91.35 41.29 91.43 91.44 0 50.15-41.28 91.43-91.43 91.35zm78.76 576.79h-157.71v-507.42h157.71zm590.62 0h-157.53v-246.75c0-58.84-1.07-134.59-81.96-134.59-82.04 0-94.62 64.15-94.62 130.24v251.1h-157.54v-507.42h151.24v69.38h2.13c30.83-52.63 88.25-84.18 149.21-81.96 159.65 0 189.16 104.99 189.16 241.7 0 0-0.09 278.21-0.09 278.3z"/>
		</clipPath>
	</defs>
	<style>
		.s0 { fill: #0a66c2 } 
	</style>
	<g clip-path="url(#cp1)">
		<path class="s0" d="m990.75 6.39h-905.95c-10.17-0.06-20.25 1.87-29.69 5.69-9.43 3.81-18.02 9.44-25.29 16.55-7.27 7.12-13.08 15.59-17.1 24.93-4.02 9.35-6.17 19.39-6.33 29.56v909.76c0.16 10.17 2.31 20.21 6.33 29.56 4.02 9.34 9.83 17.81 17.1 24.93 7.27 7.11 15.86 12.74 25.29 16.55 9.44 3.81 19.52 5.75 29.69 5.69h906.04c10.2 0.08 20.31-1.83 29.77-5.64 9.46-3.8 18.09-9.41 25.39-16.53 7.31-7.11 13.15-15.59 17.2-24.95 4.05-9.36 6.22-19.42 6.41-29.61v-909.85c-0.19-10.18-2.37-20.24-6.42-29.58-4.05-9.35-9.89-17.82-17.2-24.92-7.3-7.1-15.93-12.7-25.39-16.48-9.46-3.78-19.57-5.68-29.85-5.66zm-747.79 329.16c-11.99-0.06-23.84-2.46-34.91-7.07-11.06-4.61-21.11-11.34-29.59-19.81-8.48-8.47-15.22-18.52-19.84-29.58-4.62-11.05-7.03-22.91-7.1-34.89 0-50.15 41.29-91.44 91.44-91.44 50.15 0 91.35 41.29 91.43 91.44 0 50.15-41.28 91.43-91.43 91.35zm78.76 576.79h-157.71v-507.42h157.71zm590.62 0h-157.53v-246.75c0-58.84-1.07-134.59-81.96-134.59-82.04 0-94.62 64.15-94.62 130.24v251.1h-157.54v-507.42h151.24v69.38h2.13c30.83-52.63 88.25-84.18 149.21-81.96 159.65 0 189.16 104.99 189.16 241.7 0 0-0.09 278.21-0.09 278.3z"/>
		<rect width="1076" height="1076" id="Color Fill 1" style="fill: #ffffff"/>
	</g>
</svg>